# xmcd CD database file
#
# Track frame offsets:
#	150
#	12543
#	26941
#	40089
#	61599
#	87740
#	98805
#	125302
#	140225
#	163736
#	185935
#	207640
#	232438
#	256786
#
# Disc length: 3591 seconds
#
# Revision: 0
# Processed by: cddbd v1.5.1PL2 Copyright (c) Steve Scherf et al.
# Submitted via: CDex 1.51
#
DISCID=d70e050e
DTITLE=Various Artist - Aria - Il suono dell'anima
DYEAR=1997
DGENRE=New Age
TTITLE0=Lee Patterson Singers - nobody knows the trouble i've seen
TTITLE1=The Ceili Orchestra - greensleaves
TTITLE2=Donovan - catch the wind
TTITLE3=Gandalf - earthbound
TTITLE4=Stone Age - yesterday's child
TTITLE5=Javier Sanchez - giochi proibiti
TTITLE6=Hector Zazou - the long voyage
TTITLE7=Yair Dalal - acco malca
TTITLE8=Alex Moro mothernature
TTITLE9=Kidlex - red corner
TTITLE10=Tavasanis Project - discovery
TTITLE11=The tibetan monks - dalai lama chant for tibet
TTITLE12=Nishat Khan - raga jogia
TTITLE13=Mozarteum Salzburg - fortuna imperatrix mundi
EXTD=YEAR: 1997
EXTT0=
EXTT1=
EXTT2=
EXTT3=
EXTT4=
EXTT5=
EXTT6=
EXTT7=
EXTT8=
EXTT9=
EXTT10=
EXTT11=
EXTT12=
EXTT13=
PLAYORDER=
